<mxfile host="app.diagrams.net" modified="2023-09-22T17:30:25.596Z" agent="Mozilla/5.0 (Windows NT 10.0; Win64; x64) AppleWebKit/537.36 (KHTML, like Gecko) Chrome/116.0.0.0 Safari/537.36" etag="87g-MPsg9ujt0O96Fx9H" version="21.8.0" type="device">
  <diagram name="Page-1" id="63I2ivkgXfKhBxcJOc4k">
    <mxGraphModel dx="1259" dy="702" grid="1" gridSize="10" guides="1" tooltips="1" connect="1" arrows="1" fold="1" page="1" pageScale="1" pageWidth="850" pageHeight="1100" math="0" shadow="0">
      <root>
        <mxCell id="0" />
        <mxCell id="1" parent="0" />
        <mxCell id="PkXBu2iUaYdnaqKsU-Id-1" value="&lt;p style=&quot;margin:0px;margin-top:4px;text-align:center;&quot;&gt;&lt;i&gt;&amp;lt;&amp;lt;Interface&amp;gt;&amp;gt;&lt;/i&gt;&lt;br&gt;&lt;b&gt;WeaponInterface&lt;/b&gt;&lt;/p&gt;&lt;hr size=&quot;1&quot;&gt;&lt;p style=&quot;margin:0px;margin-left:4px;&quot;&gt;&lt;br&gt;&lt;/p&gt;&lt;p style=&quot;margin:0px;margin-left:4px;&quot;&gt;+ public void fireWeapon()&lt;br&gt;+ public void fireWeapon(int power)&lt;/p&gt;&lt;p style=&quot;margin:0px;margin-left:4px;&quot;&gt;+ public void activate(boolean enable)&lt;/p&gt;" style="verticalAlign=top;align=left;overflow=fill;fontSize=12;fontFamily=Helvetica;html=1;whiteSpace=wrap;" vertex="1" parent="1">
          <mxGeometry x="330" y="80" width="180" height="140" as="geometry" />
        </mxCell>
        <mxCell id="PkXBu2iUaYdnaqKsU-Id-9" style="edgeStyle=orthogonalEdgeStyle;rounded=0;orthogonalLoop=1;jettySize=auto;html=1;entryX=0.5;entryY=1;entryDx=0;entryDy=0;" edge="1" parent="1" source="PkXBu2iUaYdnaqKsU-Id-2" target="PkXBu2iUaYdnaqKsU-Id-1">
          <mxGeometry relative="1" as="geometry" />
        </mxCell>
        <mxCell id="PkXBu2iUaYdnaqKsU-Id-2" value="Bomb" style="swimlane;fontStyle=1;align=center;verticalAlign=top;childLayout=stackLayout;horizontal=1;startSize=26;horizontalStack=0;resizeParent=1;resizeParentMax=0;resizeLast=0;collapsible=1;marginBottom=0;whiteSpace=wrap;html=1;" vertex="1" parent="1">
          <mxGeometry x="240" y="260" width="160" height="120" as="geometry" />
        </mxCell>
        <mxCell id="PkXBu2iUaYdnaqKsU-Id-4" value="" style="line;strokeWidth=1;fillColor=none;align=left;verticalAlign=middle;spacingTop=-1;spacingLeft=3;spacingRight=3;rotatable=0;labelPosition=right;points=[];portConstraint=eastwest;strokeColor=inherit;" vertex="1" parent="PkXBu2iUaYdnaqKsU-Id-2">
          <mxGeometry y="26" width="160" height="8" as="geometry" />
        </mxCell>
        <mxCell id="PkXBu2iUaYdnaqKsU-Id-5" value="+ public void fireWeapon()&lt;br&gt;+ public void fireWeapon(int power)&lt;br&gt;+ public void activate(boolean enable)" style="text;strokeColor=none;fillColor=none;align=left;verticalAlign=top;spacingLeft=4;spacingRight=4;overflow=hidden;rotatable=0;points=[[0,0.5],[1,0.5]];portConstraint=eastwest;whiteSpace=wrap;html=1;" vertex="1" parent="PkXBu2iUaYdnaqKsU-Id-2">
          <mxGeometry y="34" width="160" height="86" as="geometry" />
        </mxCell>
        <mxCell id="PkXBu2iUaYdnaqKsU-Id-10" style="edgeStyle=orthogonalEdgeStyle;rounded=0;orthogonalLoop=1;jettySize=auto;html=1;" edge="1" parent="1" source="PkXBu2iUaYdnaqKsU-Id-6">
          <mxGeometry relative="1" as="geometry">
            <mxPoint x="420" y="220" as="targetPoint" />
            <Array as="points">
              <mxPoint x="520" y="240" />
              <mxPoint x="421" y="240" />
            </Array>
          </mxGeometry>
        </mxCell>
        <mxCell id="PkXBu2iUaYdnaqKsU-Id-6" value="Gun" style="swimlane;fontStyle=1;align=center;verticalAlign=top;childLayout=stackLayout;horizontal=1;startSize=26;horizontalStack=0;resizeParent=1;resizeParentMax=0;resizeLast=0;collapsible=1;marginBottom=0;whiteSpace=wrap;html=1;" vertex="1" parent="1">
          <mxGeometry x="440" y="260" width="160" height="120" as="geometry" />
        </mxCell>
        <mxCell id="PkXBu2iUaYdnaqKsU-Id-7" value="" style="line;strokeWidth=1;fillColor=none;align=left;verticalAlign=middle;spacingTop=-1;spacingLeft=3;spacingRight=3;rotatable=0;labelPosition=right;points=[];portConstraint=eastwest;strokeColor=inherit;" vertex="1" parent="PkXBu2iUaYdnaqKsU-Id-6">
          <mxGeometry y="26" width="160" height="8" as="geometry" />
        </mxCell>
        <mxCell id="PkXBu2iUaYdnaqKsU-Id-8" value="+ public void fireWeapon()&lt;br&gt;+ public void fireWeapon(int power)&lt;br&gt;+ public void activate(boolean enable)" style="text;strokeColor=none;fillColor=none;align=left;verticalAlign=top;spacingLeft=4;spacingRight=4;overflow=hidden;rotatable=0;points=[[0,0.5],[1,0.5]];portConstraint=eastwest;whiteSpace=wrap;html=1;" vertex="1" parent="PkXBu2iUaYdnaqKsU-Id-6">
          <mxGeometry y="34" width="160" height="86" as="geometry" />
        </mxCell>
      </root>
    </mxGraphModel>
  </diagram>
</mxfile>
